<?xml version="1.0" encoding="utf-8"?>
<!-- Generator: Adobe Illustrator 24.3.0, SVG Export Plug-In . SVG Version: 6.00 Build 0)  -->
<svg version="1.1" id="Layer_1" xmlns="http://www.w3.org/2000/svg" xmlns:xlink="http://www.w3.org/1999/xlink" x="0px" y="0px"
	 viewBox="0 0 512 512" style="enable-background:new 0 0 512 512;" xml:space="preserve">
<style type="text/css">
	.st0{fill:#007EA7;}
</style>
<g>
	<g>
		<path class="st0" d="M256,0C114.8,0,0,114.8,0,256s114.8,256,256,256s256-114.8,256-256S397.2,0,256,0z M376.2,227.5L257.3,346.4
			c-13,13-34.2,13-47.2,0l-68.8-68.8c-13-13-13-34.2,0-47.2c13-13,34.2-13,47.2,0l45.2,45.2l95.3-95.3c13-13,34.2-13,47.2,0
			C389.3,193.3,389.3,214.5,376.2,227.5z"/>
	</g>
</g>
</svg>
