<svg id="Laag_1" data-name="Laag 1" xmlns="http://www.w3.org/2000/svg" viewBox="0 0 226.69 45.25"><defs><style>.cls-1{fill:#007ea7;}.cls-2{fill:#ee6055;}.cls-3{fill:#fff;}</style></defs><path class="cls-1" d="M81.85,26.4a17.31,17.31,0,0,1-34.61.83c0-.28,0-.55,0-.83a17.31,17.31,0,1,1,34.61-.83C81.86,25.85,81.86,26.12,81.85,26.4Zm-25.92,0c0,5.5,3.75,9.12,8.58,9.12s8.58-3.62,8.58-9.12-3.74-9.12-8.58-9.12S55.93,21,55.93,26.4Z" transform="translate(-6.84 -3.69)"/><path class="cls-1" d="M108.85,9.18v8.88a18.7,18.7,0,0,0-2.12-.12c-5.49,0-10.2,2.42-10.2,10.27V43H87.89V9.82h8.64v5.8A10.79,10.79,0,0,1,106.92,9.1,17.8,17.8,0,0,1,108.85,9.18Z" transform="translate(-6.84 -3.69)"/><path class="cls-1" d="M146.78,26.4a17.31,17.31,0,0,1-34.61.83c0-.28,0-.55,0-.83a17.31,17.31,0,1,1,34.61-.83C146.79,25.85,146.79,26.12,146.78,26.4Zm-25.91,0c0,5.5,3.74,9.12,8.58,9.12S138,31.9,138,26.4s-3.74-9.12-8.57-9.12S120.87,21,120.87,26.4Z" transform="translate(-6.84 -3.69)"/><path class="cls-1" d="M6.84,25.6A17.83,17.83,0,0,1,25.13,7.31a17.19,17.19,0,0,1,17.19,13.1H33.15a8.44,8.44,0,0,0-8-4.94c-5.84,0-9.63,4.23-9.63,10.13s3.79,10.13,9.63,10.13a8.43,8.43,0,0,0,8-4.94h9.17A17.2,17.2,0,0,1,25.13,43.9,17.83,17.83,0,0,1,6.84,25.6Z" transform="translate(-6.84 -3.69)"/><path class="cls-2" d="M184.41,22.17V43h-8.63V24c0-4.35-1.64-6.76-6.23-6.76-4.89,0-7.49,2.83-7.49,8.27V43h-8.64V9.82h8.64v4.5a11.93,11.93,0,0,1,10.33-5.26C179.88,9.06,184.41,14,184.41,22.17Z" transform="translate(-6.84 -3.69)"/><path class="cls-2" d="M215.26,6.08h-9.17a.93.93,0,0,1-.93-.92V4.62a.93.93,0,0,1,.92-.93h9.17a.93.93,0,0,1,.93.92v.54A.93.93,0,0,1,215.26,6.08Z" transform="translate(-6.84 -3.69)"/><rect class="cls-2" x="209.12" y="6.12" width="3.16" height="4.3" transform="translate(-6.87 -2.73) rotate(-0.26)"/><path class="cls-2" d="M199.69,8.91l-6.43,6.52a.93.93,0,0,1-1.31,0l-.38-.38a.93.93,0,0,1,0-1.31L198,7.22a.93.93,0,0,1,1.31,0l.38.38a.93.93,0,0,1,0,1.3Z" transform="translate(-6.84 -3.69)"/><rect class="cls-2" x="196.4" y="11.51" width="3.16" height="4.3" transform="translate(42.1 141.01) rotate(-45.27)"/><path class="cls-2" d="M190.67,21.94v9.17a.93.93,0,0,1-.92.93h-.49a.93.93,0,0,1-.93-.92V22a.93.93,0,0,1,.92-.93h.54A.92.92,0,0,1,190.67,21.94Z" transform="translate(-6.84 -3.69)"/><rect class="cls-2" x="190.69" y="24.96" width="4.3" height="3.16" transform="matrix(1, 0, 0, 1, -6.95, -2.81)"/><path class="cls-2" d="M193.51,37.53,200,44a.93.93,0,0,1,0,1.31l-.38.38a.93.93,0,0,1-1.31,0l-6.52-6.46a.93.93,0,0,1,0-1.31l.38-.38a.92.92,0,0,1,1.3,0Z" transform="translate(-6.84 -3.69)"/><rect class="cls-2" x="196.11" y="37.64" width="4.3" height="3.16" transform="translate(24.03 148.78) rotate(-45.27)"/><path class="cls-2" d="M206.54,46.55h9.17a.93.93,0,0,1,.93.92V48a.93.93,0,0,1-.92.93h-9.17a.93.93,0,0,1-.93-.92v-.54a.91.91,0,0,1,.89-.93Z" transform="translate(-6.84 -3.69)"/><rect class="cls-2" x="209.53" y="42.25" width="3.16" height="4.3" transform="translate(-7.04 -2.73) rotate(-0.26)"/><path class="cls-2" d="M222.12,43.71l6.46-6.52a.93.93,0,0,1,1.31,0l.38.38a.93.93,0,0,1,0,1.31l-6.46,6.52a.93.93,0,0,1-1.31,0l-.38-.38A.93.93,0,0,1,222.12,43.71Z" transform="translate(-6.84 -3.69)"/><rect class="cls-2" x="222.25" y="36.8" width="3.16" height="4.3" transform="translate(31.8 166.86) rotate(-45.27)"/><path class="cls-2" d="M231.14,30.68V21.51a.93.93,0,0,1,.92-.93h.54a.93.93,0,0,1,.93.92v9.17a.93.93,0,0,1-.92.93h-.54a.92.92,0,0,1-.93-.91Z" transform="translate(-6.84 -3.69)"/><rect class="cls-2" x="226.81" y="24.55" width="4.3" height="3.16" transform="matrix(1, 0, 0, 1, -6.95, -2.65)"/><path class="cls-2" d="M228.31,15.09l-6.52-6.46a.93.93,0,0,1,0-1.31l.38-.38a.93.93,0,0,1,1.31,0L230,13.4a.93.93,0,0,1,0,1.31l-.38.38a.92.92,0,0,1-1.3,0Z" transform="translate(-6.84 -3.69)"/><rect class="cls-2" x="221.39" y="11.8" width="4.3" height="3.16" transform="translate(49.88 159.09) rotate(-45.27)"/><path class="cls-2" d="M216.55,17.6a16.77,16.77,0,0,1,10.19,3.45,16.84,16.84,0,1,0-26.15,18.77,16.82,16.82,0,0,1,16-22.22Z" transform="translate(-6.84 -3.69)"/><path class="cls-2" d="M227.63,26.43a16.68,16.68,0,0,0-.89-5.38,16.83,16.83,0,0,0-26.15,18.77,16.83,16.83,0,0,0,27-13.4Z" transform="translate(-6.84 -3.69)"/><circle class="cls-3" cx="204.07" cy="22.62" r="8.71"/></svg>