<?xml version="1.0" encoding="utf-8"?>
<!-- Generator: Adobe Illustrator 24.3.0, SVG Export Plug-In . SVG Version: 6.00 Build 0)  -->
<svg version="1.1" id="Layer_1" xmlns="http://www.w3.org/2000/svg" xmlns:xlink="http://www.w3.org/1999/xlink" x="0px" y="0px"
	 viewBox="0 0 122.9 122.9" style="enable-background:new 0 0 122.9 122.9;" xml:space="preserve">
<style type="text/css">
	.st0{fill:#FFFFFF;}
</style>
<g>
	<path class="st0" d="M61.4,0L61.4,0L61.4,0C44.5,0,29.1,6.9,18,18S0,44.5,0,61.4h0v0l0,0h0c0,17,6.9,32.3,18,43.4
		c11.1,11.1,26.5,18,43.4,18v0h0l0,0v0c17,0,32.3-6.9,43.4-18c11.1-11.1,18-26.5,18-43.4h0v0l0,0h0c0-17-6.9-32.3-18-43.4
		S78.4,0,61.4,0L61.4,0L61.4,0L61.4,0z M51.2,42.5c-1.9-2-1.9-5.1,0.1-7c2-1.9,5.1-1.9,7,0.1l21.8,22.5l-3.6,3.5l3.6-3.5
		c1.9,2,1.9,5.1-0.1,7c-0.1,0.1-0.1,0.1-0.2,0.2L58.3,87.3c-1.9,2-5,2-7,0.1c-2-1.9-2-5-0.1-7l18.5-18.9L51.2,42.5L51.2,42.5z"/>
</g>
</svg>
