<?xml version="1.0" encoding="utf-8"?>
<!-- Generator: Adobe Illustrator 24.3.0, SVG Export Plug-In . SVG Version: 6.00 Build 0)  -->
<svg version="1.1" id="f9f705c9-8b4c-4439-a246-51ada304283b"
	 xmlns="http://www.w3.org/2000/svg" xmlns:xlink="http://www.w3.org/1999/xlink" x="0px" y="0px" viewBox="0 0 661.9 646.2"
	 style="enable-background:new 0 0 661.9 646.2;" xml:space="preserve">
<style type="text/css">
	.st0{fill:#9F616A;}
	.st1{fill:#007EA7;}
	.st2{fill:#2F2E41;}
	.st3{fill:#3F3D56;}
	.st4{opacity:0.2;enable-background:new    ;}
	.st5{fill:#E6E6E6;}
	.st6{fill:#FFFFFF;}
</style>
<path class="st0" d="M442.6,279.4l-7,16.3l-42.9,56.8c0,0-29.4,31.7-13,33.5s27-29.4,27-29.4l50.3-49.9l5.6-22.8L442.6,279.4z"/>
<path class="st1" d="M464.1,213.2l-6.8,1.9c0,0-30.3,80.6-27.5,90.4s15.4,21.9,21,21C456.3,325.5,464.1,213.2,464.1,213.2z"/>
<path class="st2" d="M558.4,627.3c0,0-3,14.9,5.9,8.9s13.6-17.5,13.6-17.5L558.4,627.3z"/>
<path class="st2" d="M452.9,292c0,0-94.6,333.6-61,343.4s82.9-0.9,82.5-7.5s-8.9-135.6-8.9-135.6S514.4,663.8,575,623.8
	s47.1-47.5,41.5-50.3S526.5,437.8,527,413.1s-0.9-102-11.2-113.7L452.9,292z"/>
<polygon class="st3" points="310.5,677.5 -263.5,677.5 -263.5,675.3 310.9,675.3 "/>
<path class="st2" d="M513,173.4c-7.5-6.8-8.6-18.3-2.4-26.4c-0.4,0.4-0.8,0.8-1.1,1.2c-7.2,8-6.6,20.4,1.4,27.6
	c8,7.2,20.4,6.6,27.6-1.4c0.4-0.4,0.7-0.8,1-1.3C532,180.1,520.5,180.2,513,173.4z"/>
<ellipse transform="matrix(0.331 -0.9436 0.9436 0.331 211.9453 574.4696)" class="st2" cx="511.1" cy="137.8" rx="40.3" ry="40.3"/>
<path class="st2" d="M402.6,634c0,0-10.7,10.7,0,10.7s21-7,21-7L402.6,634z"/>
<path class="st0" d="M485.5,162.9c0,0,7,28.9,1.9,34.5s-16.3,9.8-16.3,9.8l1.9,52.2c0,0,21.4-7.5,22.4-8.4s20-31.2,20-31.2
	l18.6-17.7c0,0-28.4-13.5-20-36.8S485.5,162.9,485.5,162.9z"/>
<circle class="st0" cx="502.7" cy="149.4" r="24.2"/>
<path class="st1" d="M515.8,299.4c0,0,10.7-35.4,15.8-40.1c5.1-4.7,17.7-48.5,17.7-48.5s-7.9-10.7-14.4-10.7s-12.6,2.3-20,9.3
	c-3.5,3.3-9.9,6.9-15.7,9.8c-8.5,4.4-19,1-23.4-7.6c0-0.1-0.1-0.2-0.1-0.3c-1.2-2.5-1.5-4.8-0.4-6.6c0,0-17.2,4.7-18.2,11.2
	s0,20-1.4,22.8s-5.6,7-3.7,24.7c1.9,17.7-1.9,40.1-1.9,40.1C467.4,320.3,491.5,310,515.8,299.4z"/>
<ellipse class="st2" cx="502.5" cy="127.7" rx="20.5" ry="14"/>
<circle class="st2" cx="537.5" cy="107.2" r="19.6"/>
<path class="st2" d="M551.4,121.2c-10.2,0-18.7-7.8-19.5-17.9c0,0.5-0.1,1.1-0.1,1.6c0,10.8,8.8,19.6,19.6,19.6
	c10.8,0,19.5-8.7,19.6-19.5v0c0-0.5,0-1.1-0.1-1.6C570.1,113.4,561.6,121.2,551.4,121.2z"/>
<polygon class="st1" points="505.5,420.5 499,420.5 486,534 528.9,532.6 "/>
<polygon class="st4" points="505.5,420.5 499,420.5 486,534 528.9,532.6 "/>
<polygon class="st1" points="503.4,419.1 495.4,533.3 592.8,540.5 600.7,429.2 "/>
<circle class="st4" cx="536.1" cy="429.2" r="1.5"/>
<circle class="st4" cx="566.5" cy="432.8" r="1.5"/>
<path class="st3" d="M566.9,432.8h-0.7c0-0.3,0.5-30.8-17-33.6c-3.5-0.5-6.3,0.2-8.4,2.3c-7.2,7.2-4.2,27.4-4.2,27.6l-0.7,0.1
	c-0.1-0.8-3.1-20.8,4.4-28.2c2.3-2.3,5.3-3.1,9-2.5C567.4,401.4,566.9,432.5,566.9,432.8z"/>
<path class="st0" d="M550.7,275.2l-2.3,26.1l4.7,78.3c0,0,10.7,39.6-5.6,38.7s-10.3-41.5-10.3-41.5l-7.5-90.9L550.7,275.2z"/>
<path class="st1" d="M537.2,204.4l12.1,6.5c0,0,16.3,110.8,7,121.6c-9.3,10.7-28.4,14.9-29.4,10.7c-0.9-4.2-4.2-89.4-4.2-89.4
	L537.2,204.4z"/>
<path class="st5" d="M66,0H52.4c-1,0-1.8,0.8-1.8,1.8v6c0,1,0.8,1.8,1.8,1.8h2.3v8.9h9.1V9.6H66c1,0,1.8-0.8,1.8-1.8v-6
	C67.8,0.8,67,0,66,0z"/>
<path class="st5" d="M79.6,54.6C71.3,42.4,67,27.9,67.4,13.2c0-0.7-0.5-1.3-1.2-1.5V9.1H51.9v2.5h-0.2c-0.8,0-1.5,0.7-1.5,1.5v0
	c0,0,0,0.1,0,0.1c1.1,15.8-2.7,29.9-11.5,42.4c-0.5,0.7-0.8,1.6-0.7,2.5l1.6,48.5c0.1,2.2,1.9,4,4.2,4.1h32.5c2.3,0,4.1-1.8,4.2-4.1
	L81,59.4C81.1,57.7,80.5,56,79.6,54.6z"/>
<path class="st6" d="M74.4,70.7H46.2c-1.6,0-2.9,1.3-2.9,2.9c0,0.1,0,0.3,0,0.4l4.3,27.8h24.5l5.2-27.7c0.3-1.6-0.7-3.1-2.3-3.4
	C74.8,70.7,74.6,70.7,74.4,70.7L74.4,70.7z"/>
<path class="st5" d="M217.2,145.4h-13.6c-1,0-1.8,0.8-1.8,1.8v6c0,1,0.8,1.8,1.8,1.8h2.3v8.9h9.1V155h2.3c1,0,1.8-0.8,1.8-1.8v-6
	C219,146.2,218.2,145.4,217.2,145.4z"/>
<path class="st5" d="M230.8,200c-8.3-12.2-12.6-26.7-12.2-41.4c0-0.7-0.5-1.3-1.2-1.5v-2.6h-14.4v2.5H203c-0.8,0-1.5,0.7-1.5,1.5
	l0,0c0,0,0,0.1,0,0.1c1.1,15.8-2.7,29.9-11.5,42.4c-0.5,0.7-0.8,1.6-0.7,2.5l1.6,48.5c0.1,2.2,1.9,4,4.2,4.1h32.5
	c2.3,0,4.1-1.8,4.2-4.1l0.6-47.1C232.3,203.1,231.8,201.4,230.8,200z"/>
<path class="st6" d="M225.7,216.1h-28.3c-1.6,0-2.9,1.3-2.9,2.9c0,0.1,0,0.3,0,0.4l4.3,27.8h24.5l5.2-27.7c0.3-1.6-0.7-3.1-2.3-3.4
	C226.1,216.1,225.9,216.1,225.7,216.1L225.7,216.1z"/>
<path class="st5" d="M46.9,351h-6.4c-0.5,0-0.9,0.4-0.9,0.9v2.8c0,0.5,0.4,0.9,0.9,0.9h1.1v4.2h4.3v-4.2h1.1c0.5,0,0.9-0.4,0.9-0.9
	v-2.8C47.7,351.4,47.3,351,46.9,351z"/>
<path class="st5" d="M53.3,376.9c-3.9-5.8-6-12.7-5.8-19.6c0-0.3-0.2-0.6-0.5-0.7v-1.2h-6.8v1.2h-0.1c-0.4,0-0.7,0.3-0.7,0.7l0,0
	c0,0,0,0,0,0.1c0.6,7.1-1.3,14.3-5.4,20.1c-0.2,0.3-0.4,0.8-0.3,1.2l0.7,23c0,1.1,0.9,1.9,2,1.9h15.4c1.1,0,2-0.9,2-2l0.3-22.4
	C54,378.4,53.8,377.6,53.3,376.9z"/>
<rect x="36.4" y="385.3" class="st6" width="14.7" height="7.3"/>
<path class="st5" d="M76.9,351h-6.4c-0.5,0-0.9,0.4-0.9,0.9v2.8c0,0.5,0.4,0.9,0.9,0.9h1.1v4.2h4.3v-4.2h1.1c0.5,0,0.9-0.4,0.9-0.9
	v-2.8C77.7,351.4,77.3,351,76.9,351C76.9,351,76.9,351,76.9,351z"/>
<path class="st5" d="M83.3,376.9c-3.9-5.8-6-12.7-5.8-19.6c0-0.3-0.2-0.6-0.5-0.7v-1.2h-6.8v1.2h-0.1c-0.4,0-0.7,0.3-0.7,0.7l0,0
	c0,0,0,0,0,0.1c0.6,7.1-1.3,14.3-5.4,20.1c-0.2,0.3-0.4,0.8-0.3,1.2l0.7,23c0,1.1,0.9,1.9,2,1.9h15.4c1.1,0,2-0.9,2-2l0.3-22.4
	C84,378.4,83.8,377.6,83.3,376.9z"/>
<rect x="66.4" y="385.3" class="st6" width="14.7" height="7.3"/>
<path class="st5" d="M106.9,351h-6.4c-0.5,0-0.9,0.4-0.9,0.9v2.8c0,0.5,0.4,0.9,0.9,0.9h1.1v4.2h4.3v-4.2h1.1c0.5,0,0.9-0.4,0.9-0.9
	v-2.8C107.7,351.4,107.3,351,106.9,351z"/>
<path class="st5" d="M113.3,376.9c-3.9-5.8-6-12.7-5.8-19.6c0-0.3-0.2-0.6-0.5-0.7v-1.2h-6.8v1.2h-0.1c-0.4,0-0.7,0.3-0.7,0.7l0,0
	c0,0,0,0,0,0.1c0.6,7.1-1.3,14.3-5.4,20.1c-0.2,0.3-0.4,0.8-0.3,1.2l0.7,23c0,1.1,0.9,1.9,2,1.9h15.4c1.1,0,2-0.9,2-2l0.3-22.4
	C114,378.4,113.8,377.6,113.3,376.9z"/>
<rect x="96.4" y="385.3" class="st6" width="14.7" height="7.3"/>
<path class="st5" d="M193.6,294.7H180c-1,0-1.8,0.8-1.8,1.8v6c0,1,0.8,1.8,1.8,1.8h2.3v8.9h9.1v-8.9h2.3c1,0,1.8-0.8,1.8-1.8v-6
	C195.4,295.5,194.6,294.7,193.6,294.7z"/>
<path class="st5" d="M207.2,349.3c-8.3-12.2-12.6-26.7-12.2-41.4c0-0.7-0.5-1.3-1.2-1.5v-2.6h-14.4v2.5h-0.2c-0.8,0-1.5,0.7-1.5,1.5
	l0,0c0,0,0,0.1,0,0.1c1.1,15.8-2.7,29.9-11.5,42.4c-0.5,0.7-0.8,1.6-0.7,2.5l1.6,48.5c0.1,2.2,1.9,4,4.2,4.1h32.5
	c2.3,0,4.1-1.8,4.2-4.1l0.6-47.1C208.7,352.4,208.2,350.8,207.2,349.3z"/>
<path class="st6" d="M202.1,365.4h-28.3c-1.6,0-2.9,1.3-2.9,2.9c0,0.1,0,0.3,0,0.4l4.3,27.8h24.5l5.2-27.7c0.3-1.6-0.7-3.1-2.3-3.4
	C202.5,365.5,202.3,365.4,202.1,365.4L202.1,365.4z"/>
<path class="st5" d="M201,117h-81c5.7-30.6,4.4-67.6,0-107.4h81C196.8,49.4,195.5,86.3,201,117z"/>
<circle class="st6" cx="161" cy="60.3" r="19.5"/>
<path class="st5" d="M126.9,259.4h-81c5.7-30.6,4.4-67.6,0-107.4h81C122.6,191.8,121.4,228.8,126.9,259.4z"/>
<circle class="st6" cx="86.9" cy="202.8" r="19.5"/>
<path class="st5" d="M246.9,123.8h-81c5.7-30.6,4.4-67.6,0-107.4h81C242.7,56.2,241.4,93.2,246.9,123.8z"/>
<circle class="st6" cx="206.9" cy="67.2" r="19.5"/>
<path class="st5" d="M246.9,118.9h-81c5.7-30.6,4.4-67.6,0-107.4h81C242.7,51.3,241.4,88.3,246.9,118.9z"/>
<circle class="st6" cx="206.9" cy="62.3" r="19.5"/>
<path class="st5" d="M246.9,123.8h-81c5.7-30.6,4.4-67.6,0-107.4h81C242.7,56.2,241.4,93.2,246.9,123.8z"/>
<circle class="st6" cx="206.9" cy="67.2" r="19.5"/>
<rect y="111.1" class="st5" width="265.5" height="29.3"/>
<rect y="256.5" class="st5" width="265.5" height="29.3"/>
<rect y="401.9" class="st5" width="265.5" height="29.3"/>
</svg>
