<svg id="Laag_1" data-name="Laag 1" xmlns="http://www.w3.org/2000/svg" viewBox="0 0 233.53 48.94"><defs><style>.cls-1{isolation:isolate;}.cls-2{fill:#007ea7;}.cls-3{fill:#ee6055;}.cls-4{fill:#fff;}</style></defs><g class="cls-1"><g class="cls-1"><path class="cls-2" d="M9.74,48.05C9.74,35.6,19,26.18,31.61,26.18,41.7,26.18,49.55,32.4,52,41.4H42.78a11.85,11.85,0,0,0-11.23-7c-7.79,0-13.11,5.74-13.11,13.66S23.76,61.7,31.55,61.7a11.85,11.85,0,0,0,11.23-7H52c-2.48,9-10.33,15.23-20.42,15.23C19,69.92,9.74,60.49,9.74,48.05Z" transform="translate(-9.74 -26.18)"/><path class="cls-2" d="M91.59,52.58a17.31,17.31,0,1,1-34.61,0,17.31,17.31,0,1,1,34.61,0Zm-25.92,0c0,5.5,3.75,9.12,8.58,9.12s8.58-3.62,8.58-9.12-3.74-9.12-8.58-9.12S65.67,47.14,65.67,52.58Z" transform="translate(-9.74 -26.18)"/><path class="cls-2" d="M118.59,35.36v8.88a19.36,19.36,0,0,0-2.12-.12c-5.49,0-10.2,2.42-10.2,10.27v14.8H97.63V36h8.64v5.8a10.8,10.8,0,0,1,10.39-6.52A16.54,16.54,0,0,1,118.59,35.36Z" transform="translate(-9.74 -26.18)"/><path class="cls-2" d="M156.52,52.58a17.31,17.31,0,1,1-34.61,0,17.31,17.31,0,1,1,34.61,0Zm-25.91,0c0,5.5,3.74,9.12,8.58,9.12s8.57-3.62,8.57-9.12-3.74-9.12-8.57-9.12S130.61,47.14,130.61,52.58Z" transform="translate(-9.74 -26.18)"/></g><g class="cls-1"><path class="cls-3" d="M194.15,48.35V69.19h-8.63v-19c0-4.35-1.64-6.76-6.23-6.76-4.89,0-7.49,2.83-7.49,8.27V69.19h-8.64V36h8.64V40.5a11.93,11.93,0,0,1,10.33-5.26C189.62,35.24,194.15,40.19,194.15,48.35Z" transform="translate(-9.74 -26.18)"/></g></g><path class="cls-3" d="M225,32.26l-9.17,0a.93.93,0,0,1-.93-.92v-.54a.93.93,0,0,1,.92-.93l9.17,0a.93.93,0,0,1,.93.92v.54A.93.93,0,0,1,225,32.26Z" transform="translate(-9.74 -26.18)"/><rect class="cls-3" x="218.87" y="32.28" width="3.16" height="4.3" transform="translate(-9.9 -25.16) rotate(-0.26)"/><path class="cls-3" d="M209.43,35.09,203,41.61a.93.93,0,0,1-1.31,0l-.38-.38a.93.93,0,0,1,0-1.31l6.46-6.52a.93.93,0,0,1,1.31,0l.38.38A.92.92,0,0,1,209.43,35.09Z" transform="translate(-9.74 -26.18)"/><rect class="cls-3" x="206.14" y="37.7" width="3.16" height="4.3" transform="translate(23.48 133.19) rotate(-45.27)"/><path class="cls-3" d="M200.41,48.12l0,9.17a.93.93,0,0,1-.92.93H199a.93.93,0,0,1-.93-.92l0-9.17a.93.93,0,0,1,.92-.93h.54A.92.92,0,0,1,200.41,48.12Z" transform="translate(-9.74 -26.18)"/><rect class="cls-3" x="200.43" y="51.12" width="4.3" height="3.16" transform="translate(-9.98 -25.24) rotate(-0.26)"/><path class="cls-3" d="M203.25,63.71l6.52,6.46a.93.93,0,0,1,0,1.31l-.38.38a.93.93,0,0,1-1.31,0l-6.52-6.46a.93.93,0,0,1,0-1.31l.38-.38A.92.92,0,0,1,203.25,63.71Z" transform="translate(-9.74 -26.18)"/><rect class="cls-3" x="205.86" y="63.83" width="4.3" height="3.16" transform="translate(5.4 140.96) rotate(-45.27)"/><path class="cls-3" d="M216.28,72.73l9.17,0a.93.93,0,0,1,.93.92v.54a.93.93,0,0,1-.92.93l-9.17,0a.93.93,0,0,1-.93-.92v-.54A.91.91,0,0,1,216.28,72.73Z" transform="translate(-9.74 -26.18)"/><rect class="cls-3" x="219.27" y="68.41" width="3.16" height="4.3" transform="translate(-10.06 -25.16) rotate(-0.26)"/><path class="cls-3" d="M231.86,69.89l6.46-6.52a.93.93,0,0,1,1.31,0l.38.38a.93.93,0,0,1,0,1.31l-6.46,6.52a.93.93,0,0,1-1.31,0l-.38-.38A.93.93,0,0,1,231.86,69.89Z" transform="translate(-9.74 -26.18)"/><rect class="cls-3" x="231.99" y="62.99" width="3.16" height="4.3" transform="translate(13.17 159.04) rotate(-45.27)"/><path class="cls-3" d="M240.88,56.86l0-9.17a.93.93,0,0,1,.92-.93h.54a.93.93,0,0,1,.93.92l0,9.17a.93.93,0,0,1-.92.93h-.54A.92.92,0,0,1,240.88,56.86Z" transform="translate(-9.74 -26.18)"/><rect class="cls-3" x="236.56" y="50.71" width="4.3" height="3.16" transform="translate(-9.98 -25.08) rotate(-0.26)"/><path class="cls-3" d="M238.05,41.27l-6.52-6.46a.93.93,0,0,1,0-1.31l.38-.38a.93.93,0,0,1,1.31,0l6.52,6.46a.93.93,0,0,1,0,1.31l-.38.38A.92.92,0,0,1,238.05,41.27Z" transform="translate(-9.74 -26.18)"/><rect class="cls-3" x="231.14" y="37.99" width="4.3" height="3.16" transform="translate(31.25 151.27) rotate(-45.27)"/><path class="cls-3" d="M226.29,43.78a16.78,16.78,0,0,1,10.19,3.45A16.84,16.84,0,1,0,210.33,66a16.82,16.82,0,0,1,16-22.22Z" transform="translate(-9.74 -26.18)"/><path class="cls-3" d="M237.37,52.61a16.81,16.81,0,0,0-.89-5.38A16.83,16.83,0,0,0,210.33,66a16.83,16.83,0,0,0,27-13.4Z" transform="translate(-9.74 -26.18)"/><circle class="cls-4" cx="210.91" cy="26.31" r="8.71"/></svg>