<?xml version="1.0" encoding="utf-8"?>
<!-- Generator: Adobe Illustrator 24.3.0, SVG Export Plug-In . SVG Version: 6.00 Build 0)  -->
<svg version="1.1" id="_x30_856a1da-3393-4f60-9d09-641e026e226c"
	 xmlns="http://www.w3.org/2000/svg" xmlns:xlink="http://www.w3.org/1999/xlink" x="0px" y="0px" viewBox="0 0 708.8 778.9"
	 style="enable-background:new 0 0 708.8 778.9;" xml:space="preserve">
<style type="text/css">
	.st0{fill:#EDEDF4;}
	.st1{fill:#3B477B;}
	.st2{fill:#EE6055;}
	.st3{opacity:8.000000e-02;fill:#FFAE62;enable-background:new    ;}
	.st4{opacity:8.000000e-02;enable-background:new    ;}
	.st5{opacity:8.000000e-02;}
	.st6{fill:#FFFFFF;}
	.st7{opacity:8.000000e-02;fill:#FFFFFF;enable-background:new    ;}
	.st8{opacity:0.3;fill:#FFFFFF;enable-background:new    ;}
	.st9{fill:url(#SVGID_1_);}
	.st10{fill:#F7C4A7;}
	.st11{opacity:0.1;enable-background:new    ;}
	.st12{fill:#F3B5B7;}
	.st13{fill:#FC6681;}
	.st14{fill:#575988;}
	.st15{opacity:5.000000e-02;enable-background:new    ;}
	.st16{opacity:0.1;}
	.st17{fill:#965D7B;}
</style>
<rect x="43.8" y="99.6" class="st0" width="665" height="433.7"/>
<ellipse class="st1" cx="157.7" cy="455.1" rx="56.3" ry="8.9"/>
<rect x="148.8" y="128.5" class="st1" width="17.8" height="326.7"/>
<circle class="st1" cx="157.7" cy="137.4" r="22.6"/>
<path class="st2" d="M207.8,158c0,0-8.9,19.2-15.8,59l-39.1-43.2c0,0,10.5-4.2,21.7-9C185.1,160.3,196.4,158,207.8,158L207.8,158z"
	/>
<path class="st3" d="M208,158c0,0-8.9,19.2-15.8,59l-39.1-43.2c0,0,10.5-4.2,21.7-9C185.2,160.3,196.5,158,208,158L208,158z"/>
<path class="st2" d="M109,158c0,0,12.4,36.4,13,50.8v17.2H194v-17.8c-8.8-11.1-18.7-21.3-29.6-30.4C148.7,164.9,129.1,158,109,158
	L109,158z"/>
<path class="st2" d="M122,225.9c0,0-18.5,22-19.9,48s11.7,103.6,11.7,103.6s43.9,15.8,87.8,0c0,0,13.7-79.6,12.4-105
	s-27.8-58.7-27.8-58.7L122,225.9z"/>
<path class="st4" d="M167,206.4c0,0,8.9-0.7,14.4,2.1s12.7,3,12.7,3"/>
<path class="st4" d="M167,210.4c0,0,8.9-0.7,14.4,2.1s12.7,3,12.7,3"/>
<path class="st4" d="M167,216c0,0,8.9-0.7,14.4,2.1s12.7,3,12.7,3"/>
<path class="st4" d="M125.8,226.3c0,0-5.5,14.4-4.8,16.5s-5.5,14.4-5.5,14.4"/>
<path class="st4" d="M129.9,235.2c0,0-5.5,14.4-4.8,16.5s-5.5,14.4-5.5,14.4"/>
<path class="st4" d="M191.6,226.3c0,0,5.5,14.4,4.8,16.5s5.5,14.4,5.5,14.4"/>
<path class="st4" d="M187.5,235.2c0,0,5.5,14.4,4.8,16.5s5.5,14.4,5.5,14.4"/>
<ellipse class="st1" cx="372.5" cy="498.4" rx="56.3" ry="8.9"/>
<rect x="363.6" y="171.7" class="st1" width="17.8" height="326.7"/>
<circle class="st1" cx="372.5" cy="180.6" r="22.6"/>
<path class="st2" d="M337.8,285.3l-81.7,113.2l22.6,8.9c0,0-4.1,4.1-1.4,6.2c0,0,9.6,8.9,35,10.3c0,0,7.5-10.3,22.7,3.4
	s33.6,2.8,33.6,2.8s13.7-11.6,29.5-0.6s35.7-5.5,35.7-5.5s10.3-15.1,32.2-9.6s22-15.1,22-15.1l-83-116.7L337.8,285.3z"/>
<g class="st5">
	<path class="st6" d="M467.7,414.6c6,1.2,10.2,0.4,13.2-1.4C476.5,412.8,472,413.2,467.7,414.6z"/>
	<path class="st6" d="M298,413.6c-2.7-2.1,1.4-6.2,1.4-6.2l-22.7-8.9l61.1-113.2l-81.6,113.2l22.6,8.9c0,0-4.1,4.1-1.4,6.2
		c0,0,9.6,8.9,35,10.3c0.9-1,1.9-1.9,3.1-2.5C303.1,418.3,298,413.6,298,413.6z"/>
	<path class="st6" d="M355.7,427.3c-15.1-13.7-22.7-3.4-22.7-3.4c-0.8,0-1.7-0.1-2.5-0.2c1.6,1.1,3.1,2.3,4.6,3.6
		c10.2,9.2,21.9,7.3,28.5,5C360.6,431.1,358,429.5,355.7,427.3z"/>
	<path class="st6" d="M418.8,429.4c-10-7-19.2-4.8-24.6-2.3c1.4,0.7,2.7,1.4,4,2.3c7.7,5.4,16.4,4.2,23.2,1.6
		C420.6,430.6,419.7,430,418.8,429.4z"/>
</g>
<path class="st2" d="M412,294.5h-76.9c0,0-4.8-58.3-11.7-67.2c2.8-1.2,5.7-2.3,8.7-3.2c4.6-1.4,9.3-2.6,14-3.5
	c16.3-3.1,33-3.3,49.4-0.5c4.8,0.8,9.5,1.9,14.1,3.3c3.7,1.1,7.4,2.3,11.2,3.8C426.5,229.5,407.1,282.2,412,294.5z"/>
<path class="st7" d="M355.5,294.5h-10.2c-0.1-12.9-9.6-54.6-13.3-70.4c4.6-1.4,9.3-2.6,14-3.5C346.8,237.2,353.7,282.3,355.5,294.5z
	"/>
<path class="st7" d="M409.6,223.4c-3.5,15.2-13.3,58-13.4,71.1H386c1.9-12.3,8.8-58.1,9.5-74.4C400.3,221,405,222.1,409.6,223.4z"/>
<ellipse class="st1" cx="585.9" cy="457.2" rx="56.3" ry="8.9"/>
<rect x="577" y="130.5" class="st1" width="17.8" height="326.7"/>
<circle class="st1" cx="585.9" cy="139.4" r="22.7"/>
<path class="st2" d="M625.2,247.6c-0.7-2.2-1.3-4.3-1.9-6.2V216l8.2-35c-19.2-28.1-46,0-46,0c-29.5-26.1-44.6,0-44.6,0
	c2.1,4.8,6.9,35,6.9,35v29c-10.9,22.9-14.2,48.3-12.7,73.8l5.1,87.4c0,0,49.4,19.2,90.6,0l4.1-73.3
	C636.6,304.1,633.3,275.3,625.2,247.6z"/>
<g class="st5">
	<path d="M596.2,181.7c0,0,9.7-10.2,21.7-12.2c-10.9-3.5-21.7,3-27.5,7.6C592.4,178.4,594.4,180,596.2,181.7z"/>
	<path d="M550.9,406.8l-5.1-87.4c-1.5-25.5,1.8-50.9,12.7-73.8v-29c0,0-4.8-30.2-6.9-35c0,0,5.5-9.5,16.4-11.3
		c-17.7-4.9-26.7,10.6-26.7,10.6c2.1,4.8,6.9,35,6.9,35v29c-10.9,22.9-14.2,48.3-12.7,73.8l5.1,87.4c14.5,5.1,29.7,8,45,8.5
		C573.8,413.4,562.2,410.7,550.9,406.8z"/>
</g>
<g class="st5">
	<path d="M575.6,181c1.5-1.5,3.2-3,4.9-4.3c-10-7.2-18.1-8.2-24.3-6.7C561.8,171.2,568.2,174.4,575.6,181z"/>
	<path d="M625.6,247.6c-0.7-2.2-1.3-4.3-1.9-6.2V216l8.2-35c-8.1-11.9-17.5-13.7-25.8-11.9c5.3,1.3,10.6,4.8,15.5,11.9l-8.2,35v25.5
		c0.6,1.9,1.3,4,1.9,6.2c8.1,27.6,11.4,56.4,9.7,85.2l-4.1,73.3c-12,5.6-24.7,7.9-36.7,8.4c14.8,0.6,31.5-1.2,47-8.4l4.2-73.2
		C637,304.1,633.7,275.2,625.6,247.6z"/>
</g>
<rect x="70.3" y="534" class="st0" width="60" height="32"/>
<rect x="130.8" y="567.5" class="st0" width="60" height="32"/>
<rect x="191.3" y="534" class="st0" width="60" height="32"/>
<rect x="191.8" y="600.5" class="st0" width="60" height="32"/>
<rect x="251.8" y="567.5" class="st0" width="60" height="32"/>
<rect x="312.3" y="534" class="st0" width="60" height="32"/>
<rect x="372.8" y="567.5" class="st0" width="60" height="32"/>
<rect x="433.3" y="534" class="st0" width="60" height="32"/>
<rect x="433.8" y="600.5" class="st0" width="60" height="32"/>
<rect x="493.8" y="567.5" class="st0" width="60" height="32"/>
<rect x="648.8" y="534.5" class="st0" width="60" height="32"/>
<rect x="587.8" y="568.5" class="st0" width="60" height="32"/>
<rect x="114.8" y="67.5" class="st0" width="60" height="32"/>
<rect x="174.8" y="33.5" class="st0" width="60" height="32"/>
<rect x="235.3" class="st0" width="60" height="32"/>
<rect x="235.8" y="66.5" class="st0" width="60" height="32"/>
<rect x="295.8" y="33.5" class="st0" width="60" height="32"/>
<rect x="356.8" y="67.5" class="st0" width="60" height="32"/>
<rect x="416.8" y="33.5" class="st0" width="60" height="32"/>
<rect x="477.3" class="st0" width="60" height="32"/>
<rect x="477.8" y="66.5" class="st0" width="60" height="32"/>
<rect x="537.8" y="33.5" class="st0" width="60" height="32"/>
<polygon class="st8" points="221.3,99.6 43.8,266.1 43.8,299.2 265.3,99.6 "/>
<polygon class="st8" points="43.8,346.1 43.8,413.1 433.8,99.6 376.3,98.5 "/>
<linearGradient id="SVGID_1_" gradientUnits="userSpaceOnUse" x1="337.7025" y1="-61.35" x2="337.7025" y2="442.5168" gradientTransform="matrix(1 0 0 -1 -245.62 717.44)">
	<stop  offset="0" style="stop-color:#808080;stop-opacity:0.25"/>
	<stop  offset="0.54" style="stop-color:#808080;stop-opacity:0.12"/>
	<stop  offset="1" style="stop-color:#808080;stop-opacity:0.1"/>
</linearGradient>
<path class="st9" d="M183.9,772.4l0.1-0.2l0.1-0.2l0.1-0.2c0-0.1,0-0.2,0.1-0.2c0-0.1,0-0.2,0-0.2s0-0.1,0-0.2s0-0.1,0-0.2
	s0-0.1,0-0.2s0-0.1,0-0.2c0.2-1.4-0.8-3.1-2.1-4.5c-1.7-2-4.2-3.1-6.8-3.3c-14.4-0.7-30.6-25.3-30.6-25.3l-0.6,0.5
	c-1.7-3.3-3.2-6.8-4.3-10.4h1.6v-0.4l0,0v-0.4l0,0l-2.2-23l6-68.9c1.9-4.1,3.2-8.4,4.1-12.9c0.3-1.6,0.5-3.3,0.5-5
	c0-0.1,0-0.2,0-0.4c0-3.7-0.9-7.4-2.6-10.7L122,557.8c0.9,0.1,1.4,0.1,1.4,0.1c7.4-10.6,2.7-26.3-2.6-37.7c1.1-0.6,1.9-1,1.9-1
	c-0.3-0.1-0.5-0.2-0.7-0.4l0.7-0.3c-4.3-1.6-7.9-14-9.5-21l2.4-8.8c4,0.6,7.9,1.8,11.6,3.5c0,0-0.3-0.7-0.9-1.9l0,0l0.9,0.4
	c0,0-0.3-0.7-0.9-1.8l0,0c-3.1-6.7-13.1-30-13.4-50.5c0-2.7,0.3-5.5,0.7-8.1c0.5-2.6,0.7-5.2,0.6-7.8c0.5-11.9-5.9-23-16.4-28.7
	c0,0-9.8-8-12-17.5c-0.7-3.1-3-5.7-5.8-7.7c1-7.5,4.8-14.4,8.6-19.7c0.4-0.1,0.9-0.2,1.3-0.3c0.5-0.7,1-1.3,1.5-1.8
	c11.3-3.2,19.1-13.4,19.2-25.1c0-8.6-4.4-16.7-11.5-21.5c0.7-0.1,1.4-0.6,2.3-2c1.2-2,1.3-4.5,0.4-6.6c-0.7-1.6-1.8-2.9-3-4.1
	c-2-1.9-4.3-3.5-6.7-4.8c-5.6-3.3-11.5-6.7-18-7.5c-3.3-0.3-6.6-0.2-10,0.2l-15.1,1.4c-7.2,0.6-15.2,1.7-19.6,7.2s-3.8,13.6-8.2,19
	c-3.3,4-8.7,5.7-12.8,8.9c-7.5,5.9-9.4,16.5-7.7,25.7s6.5,17.6,10.6,26.1c4.1,8.5,7.5,17.7,6.4,27c-1,8-5.4,15.3-6.9,23.3
	c-1.1,5.9-0.7,12,1.2,17.6c0.3,1.2,0.9,2.2,1.7,3.1c0.1,0.1,0.3,0.2,0.4,0.3c0.1,0.1,0.2,0.3,0.4,0.4c1.5,1.4,3.7,1.6,5.8,1.6
	c5,0.2,10.1,0.2,14.7,2.1c1.5,0.7,3,1.6,4.2,2.7c2.1,2,3.2,4.9,3.1,7.8c-0.4,4.4-4.2,9-1.8,12.7h0.4c0.1,0.2,0.2,0.5,0.4,0.7
	c2.5,0.4,5.1,0.5,7.6,0.2c0.6,4.2,0.9,8.4,1,12.6c0,4.6-0.6,8.4-2.1,10.7h0.3h0.3h0.2c-0.2,0.5-0.5,1-0.8,1.5l3-0.2
	c-3.8,6.3-7.9,12.4-12.4,18.3c-5.6,6.9-8.7,15.5-8.7,24.4c0,1.3,0,2.6,0.1,3.9c0.7,7.1,3.2,14.7,9.7,20.8c0,0,2.8,6.7,2.9,12.4
	c0,1.2-0.2,2.5-0.6,3.7v51.8l-9,34.3c-1.2,6.8-1.7,13.8-1.7,20.7c0,10,1.2,21.7,6.2,30.3l7.5,35.7l0.8,0.1v10
	c-0.9-0.8-1.5-1.4-1.5-1.4l-2.2,21.9h0.1l-0.1,0.7c0,0,12.8,2.9,48.8,3.6h1.9h2.4h1.2h0.5h1.5H98l1.5-0.1h0.5l1-0.1h0.5l0.9-0.1h0.4
	l1.1-0.1h0.2l1.2-0.1h0.3l0.8-0.1l0.4-0.1l0.7-0.1l0.3-0.1l0.8-0.2h0.1l0.9-0.2l0.2-0.1l0.6-0.2l0.3-0.1l0.5-0.2l0.2-0.1l0.6-0.2
	h0.1l0.6-0.3l0.1-0.1l0.4-0.2l0.2-0.1l0.4-0.2l0.1-0.1l0.4-0.2h0l0.4-0.3h0l0.3-0.2l0.1-0.1l0.2-0.2l0.1-0.1l0.2-0.3l0,0
	c0.1-0.1,0.1-0.2,0.2-0.3l0,0c0-0.1,0.1-0.2,0.1-0.3v-0.1c0-0.1,0.1-0.2,0.1-0.3v-0.1c0-0.1,0-0.2,0-0.3l0,0c0-0.2,0-0.4,0-0.5
	c0.4-2.6-3.6-5.2-7.1-5.2c-7.5,0-32.3-21.1-33.8-22.6c-0.6-0.6-1.8-0.4-3.2,0.3c-1.1-1-2.4-2.3-3.6-3.6c0.4-0.5,0.7-1.1,0.8-1.7
	l-0.1-0.2c0-0.2,0.1-0.3,0.1-0.5c0,0-5.1-12.4-5.3-18.3c0-0.2,0-0.4,0-0.6l0.6-52.3c0.1-6.8,2.3-13.4,6.2-19
	c3.1-4.5,6.3-11.4,6.7-21.2l10.4-37.9c14,12.9,25,30,26.3,31.9c-0.8,3.5-5.4,24.1-5.3,44.3c0,0.1,0,0.2,0,0.4
	c-0.1,6.1,0.5,12.2,1.6,18.3c2.5,12,3.9,24.3,4,36.5c0,4.1-0.2,6.5-0.2,6.5l0,0c0,0.2,0,0.4,0,0.4l0,0c0,0.2,0,0.4,0,0.4h1.5v9.4
	l-0.4-0.3l-9.4,16.4l0.2,0.2l-0.2,0.5c0,0,15.8,16,54.8,20.4l2.2,0.2l0.6,0.1l1.5,0.1h0.6l1.9,0.1l0,0l1.7,0.1h0.5h1.2h2h1.3h0.4
	h0.9h0.4l1.1-0.1h0.2l0.9-0.1h0.3l0.6-0.1l0.3,0l0.8-0.2h0.1l0.6-0.2l0.2-0.1l0.4-0.2l0.2-0.1l0.5-0.2l0.1-0.1l0.3-0.2l0.2-0.1
	l0.2-0.2l0.1-0.1c0.1-0.1,0.2-0.2,0.2-0.3l0.1-0.1L183.9,772.4z"/>
<path class="st10" d="M112,506.1c0,0,22.3,33.2,10.1,51.2c0,0-18,0-13.7-19.5c2.6-11.7,2.1-23.9-1.4-35.3L112,506.1z"/>
<path class="st10" d="M47.2,733.8v25.9l23.1,2.2l8.6-13l-2.2-3.6c0,0-10.1-7.9-12.2-15.1S47.2,733.8,47.2,733.8z"/>
<path class="st11" d="M57.3,756.2c0,0,15.6-17.5,18.7-14.4c1.4,1.4,25.2,22.3,32.4,22.3s16.6,11.5-18,10.8s-46.8-3.6-46.8-3.6
	l2.2-21.6C45.8,749.7,53.7,757.6,57.3,756.2z"/>
<path class="st12" d="M57.3,756.9c0,0,15.6-17.5,18.7-14.4c1.4,1.4,25.2,22.3,32.4,22.3s16.6,11.5-18,10.8S43.6,772,43.6,772
	l2.1-21.6C45.7,750.4,53.7,758.3,57.3,756.9z"/>
<path class="st10" d="M114.9,720.9V741l12.2,10.1l13.7-3.6l3.6-7.9c0,0-7.2-10.1-9.4-27.4L114.9,720.9z"/>
<path class="st11" d="M125,742.4h8.6l9-7.6c0,0,15.5,24.4,29.3,25.1c2.5,0.2,4.9,1.3,6.5,3.3c3.6,4.2,5.3,10.3-20.3,7.4
	c-37.5-4.3-52.6-20.1-52.6-20.1l9-16.2L125,742.4z"/>
<path class="st12" d="M125,743.2h8.6l9-7.6c0,0,15.5,24.4,29.3,25.1c2.5,0.2,4.9,1.3,6.5,3.3c3.6,4.2,5.3,10.3-20.3,7.4
	c-37.5-4.3-52.6-20.2-52.6-20.2l9-16.2L125,743.2z"/>
<path class="st11" d="M111.3,493.8c0,0,4.3,23.1,10.1,25.2c0,0-12.2,5.8-10.1,11.5l-10.1-46.8l12.2,1.4L111.3,493.8z"/>
<path class="st13" d="M111.3,493.1c0,0,4.3,23.1,10.1,25.2c0,0-12.2,5.8-10.1,11.5L101.2,483l12.2,1.4L111.3,493.1z"/>
<path class="st11" d="M111.3,493.1c0,0,4.3,23.1,10.1,25.2c0,0-12.2,5.8-10.1,11.5L101.2,483l12.2,1.4L111.3,493.1z"/>
<path class="st11" d="M102,520.5l43,85.3c2.4,4.7,3.1,10,2.1,15.1c-0.9,4.4-2.2,8.6-4,12.7l-5.8,68.5l2.1,23.1h-25.9
	c0,0,1.4-18-3.6-43.2s3.6-62,3.6-62S97.6,594,79.6,581S102,520.5,102,520.5z"/>
<path class="st14" d="M102,519.8l43,85.3c2.4,4.7,3.1,10,2.1,15.1c-0.9,4.4-2.2,8.6-4,12.7l-5.8,68.5l2.1,23h-25.9
	c0,0,1.4-18-3.6-43.2s3.6-62,3.6-62s-15.9-25.9-33.9-38.9S102,519.8,102,519.8z"/>
<path class="st15" d="M102,520.2l43,85.3c2.4,4.7,3.1,10,2.1,15.1c-0.9,4.4-2.2,8.6-4,12.7l-5.8,68.5l2.1,23.1h-25.9
	c0,0,1.4-18-3.6-43.2s3.6-62,3.6-62s-15.9-25.9-33.9-38.9S102,520.2,102,520.2z"/>
<path class="st11" d="M55.8,482.3c0,0-8.9,15.8-15.5,24.3c-6.1,7.7-9,17.4-8.2,27.2c0.6,7,3.1,14.5,9.4,20.5c0,0,4.3,10.8,2.2,16.6
	v51.2L34.9,656c0,0-5.8,31.7,4.3,49.7l7.2,35.3c0,0,23.1,2.9,23.8-4.3c0,0-5.8-14.4-5-19.5l0.6-51.7c0.1-6.7,2.2-13.3,6-18.8
	c3-4.4,6-11.3,6.4-21l38.2-143.4H55.8z"/>
<path class="st14" d="M55.8,481.6c0,0-8.9,15.8-15.5,24.3c-6.1,7.7-9,17.4-8.2,27.2c0.6,7,3.1,14.5,9.4,20.5c0,0,4.3,10.8,2.2,16.6
	v51.2l-8.6,33.9c0,0-5.8,31.7,4.3,49.7l7.2,35.3c0,0,23.1,2.9,23.8-4.3c0,0-5.8-14.4-5-19.5l0.6-51.7c0.1-6.7,2.2-13.3,6-18.8
	c3-4.4,6-11.3,6.4-21l38.2-143.4H55.8z"/>
<path class="st10" d="M107.7,534.2c0,0,5,32.4-13,42.5c0,0-7.2-5,2.9-21.6l0.7-22.3L107.7,534.2z"/>
<path class="st11" d="M158.2,769.9c-34.1-3.9-49.7-17.4-52.2-19.8l-0.4,1.1c0,0,15.1,15.8,52.6,20.2c19.2,2.2,23.1-0.7,22.3-4
	C179.7,769.9,174.5,771.8,158.2,769.9z"/>
<path class="st11" d="M90.4,773.4c-32-0.7-44.9-3.2-46.6-3.6l-0.2,2.1c0,0,12.2,2.9,46.8,3.6c21.5,0.5,26-3.8,24.6-7.2
	C113.8,771.2,107.4,773.8,90.4,773.4z"/>
<path class="st11" d="M46.8,554.8c0,0,17.3,0,22.3-4.3s17.3,0,17.3,0"/>
<path class="st11" d="M42.5,706.1c-10.1-18-4.3-49.7-4.3-49.7l8.6-33.9v-51.2c2.2-5.8-2.2-16.6-2.2-16.6c-6.2-6-8.7-13.5-9.4-20.5
	c-0.8-9.8,2.2-19.5,8.2-27.2c6.6-8.5,15.5-24.3,15.5-24.3h57.5l0.2-0.7H56.2c0,0-8.9,15.8-15.5,24.3c-6.1,7.7-9.1,17.4-8.3,27.2
	c0.6,7,3.1,14.5,9.4,20.5c0,0,4.3,10.8,2.2,16.6v51.2l-8.6,33.9c0,0-5.8,31.7,4.3,49.7l7.2,35.3c0,0,1.1,0.1,2.8,0.3L42.5,706.1z"/>
<path class="st10" d="M97.6,340.4c0,0-16.6,15.1-17.2,32.4s-28.1-3.6-28.1-3.6s20.9-9.4,19.5-36.8L97.6,340.4z"/>
<path class="st11" d="M68.1,365.6c0,0-22.3-8.6-26.7,28.1l5,48.3c0,0,8.6,36.8,2.9,46.1c0,0,59.1-5,76.4,4.3c0,0-17.3-36-13-61.3
	s-15.1-34.6-15.1-34.6s-9.4-7.9-11.5-17.3S68.1,365.6,68.1,365.6z"/>
<path class="st13" d="M68.1,364.1c0,0-22.3-8.7-26.7,28.1l4.1,39.4c0.5,5.2,1.4,10.5,2.4,15.7c2.2,11.1,5.6,32.5,1.4,39.3
	c0,0,59.1-5,76.4,4.3c0,0-17.3-36-13-61.3s-15.1-34.6-15.1-34.6s-9.4-7.9-11.5-17.3S68.1,364.1,68.1,364.1z"/>
<path class="st11" d="M63.8,411.7l25.9,95.8c0,0,10.1,23.1,5.8,29.5c0,0,11.5,5.8,16.6,0S101.2,465,101.2,465l-9.4-53.3L63.8,411.7z
	"/>
<path class="st13" d="M64.5,411l25.9,95.9c0,0,10.1,23.1,5.8,29.5c0,0,11.5,5.8,16.6,0s-10.8-72.1-10.8-72.1L92.5,411L64.5,411z"/>
<path class="st11" d="M92.2,427.2c0,0,7.2,20.9,10.8,23.1c3.6,2.2,1.4,18,1.4,18"/>
<path class="st11" d="M71.3,342.1c3.9,2.4,7.7,9,12.6,9c2.1,0,4.1-0.2,6.1-0.7c2.3-3.1,4.8-6,7.6-8.6l-25.9-7.9
	C72,339,72.4,338.2,71.3,342.1z"/>
<circle class="st10" cx="83.9" cy="323.8" r="25.9"/>
<g class="st16">
	<path d="M53.1,486.4c4-7.1,0.6-28.1-1.6-39c-1-5.2-1.8-10.4-2.4-15.7L45,392.3c2.7-22.9,12.4-28.2,19.3-28.9
		c-6.5-0.6-19.7,1.6-22.9,28.9l4.1,39.4c0.5,5.2,1.4,10.5,2.4,15.7c2.2,11.1,5.6,32.5,1.4,39.3C49.4,486.6,50.7,486.5,53.1,486.4z"
		/>
	<path d="M84.7,485.3c16,0.1,33,1.3,41.1,5.7c0,0-0.3-0.7-0.8-1.8C115.1,486,99.1,485.2,84.7,485.3z"/>
</g>
<path class="st11" d="M92.6,317.7c-2.2,5.7-6.2,10.4-10.3,14.9c-2.3,2.5-4.6,5.1-6,8.2c-1.1,2.8-1.8,5.8-2,8.8
	c-1.6,12.4-3.1,25.5,2.3,36.7c1.5,3.1,3.5,6.1,4.5,9.4c1.8,6.1,0,12.7-2.4,18.6c-3.3,8.2-7.6,16-12.8,23.2c-3,4.1-6.4,8.3-7.5,13.3
	c-0.7,3.4-0.5,7.1-2.6,9.8c-2.8,3.6-8.3,3.3-12.8,2.7c-2.3-3.7,1.4-8.2,1.8-12.6c0.5-4.8-3.3-9.1-7.7-11s-9.3-2-14.1-2.1
	c-2-0.1-4.1-0.2-5.6-1.6c-0.8-0.9-1.4-1.9-1.6-3.1c-1.8-5.6-2.2-11.5-1.1-17.2c1.5-7.9,5.7-15.1,6.6-23c1.1-9.2-2.2-18.3-6.1-26.7
	S6.7,349.4,5,340.3s0.2-19.5,7.4-25.4c3.9-3.2,9.1-4.9,12.3-8.8c4.3-5.3,3.7-13.4,7.9-18.8s12-6.5,18.9-7.1l14.5-1.3
	c3.2-0.4,6.4-0.5,9.5-0.2c6.3,0.8,11.9,4.1,17.3,7.4c3.4,2.1,7.1,4.4,8.6,8.1c0.9,2.1,0.7,4.5-0.4,6.6c-2.7,4.3-3.9,0.1-6,1.1
	C92,303.1,94.3,313.4,92.6,317.7z"/>
<path class="st17" d="M91.9,317c-2.2,5.7-6.3,10.4-10.3,14.9c-2.3,2.5-4.6,5.1-6,8.2c-1.1,2.8-1.8,5.8-2,8.8
	c-1.6,12.4-3.1,25.5,2.3,36.7c1.5,3.1,3.5,6.1,4.5,9.4c1.8,6.1,0,12.7-2.4,18.6c-3.3,8.2-7.6,16-12.8,23.2c-3,4.1-6.4,8.3-7.5,13.3
	c-0.7,3.3-0.5,7.1-2.6,9.8c-2.8,3.6-8.3,3.3-12.8,2.7c-2.3-3.7,1.4-8.2,1.8-12.6c0.5-4.8-3.3-9.1-7.7-11s-9.3-2-14.1-2.1
	c-2-0.1-4.1-0.2-5.6-1.6c-0.8-0.9-1.4-1.9-1.6-3.1c-1.8-5.6-2.2-11.5-1.1-17.2c1.5-7.9,5.7-15.1,6.6-23c1.1-9.2-2.2-18.3-6.1-26.7
	S6,348.6,4.3,339.5s0.2-19.5,7.4-25.4c3.9-3.2,9.1-4.9,12.3-8.8c4.3-5.3,3.7-13.4,7.9-18.8s12-6.5,18.9-7.1l14.5-1.3
	c3.2-0.4,6.4-0.5,9.5-0.2c6.3,0.8,11.9,4.1,17.3,7.4c3.4,2.1,7.1,4.4,8.6,8.1c0.9,2.1,0.7,4.5-0.4,6.6c-2.7,4.3-3.9,0.1-6,1.1
	C91.2,302.3,93.6,312.7,91.9,317z"/>
</svg>
